<svg xmlns="http://www.w3.org/2000/svg" width="192" height="192" fill="#000000" viewBox="0 0 256 256"><path d="M33.967 30.163 C 30.090 30.538,26.252 32.378,23.389 35.233 C 21.026 37.588,19.573 40.092,18.582 43.510 L 18.144 45.024 18.144 90.048 L 18.144 135.072 18.583 136.588 C 20.107 141.851,23.414 145.851,28.128 148.136 C 31.593 149.815,31.648 149.822,40.903 149.905 C 48.818 149.975,49.103 149.965,50.145 149.575 C 51.574 149.041,53.035 147.588,53.562 146.179 C 54.660 143.244,53.360 139.980,50.540 138.591 C 49.648 138.152,49.501 138.142,42.144 138.048 L 34.656 137.952 33.587 137.451 C 32.250 136.824,31.197 135.766,30.549 134.400 L 30.048 133.344 30.048 90.144 C 30.048 55.643,30.097 46.781,30.293 46.136 C 30.786 44.512,32.656 42.712,34.334 42.246 C 35.316 41.973,156.684 41.973,157.666 42.246 C 159.344 42.712,161.214 44.512,161.707 46.136 C 161.903 46.781,161.952 55.643,161.952 90.144 L 161.952 133.344 161.451 134.400 C 160.803 135.766,159.750 136.824,158.413 137.451 L 157.344 137.952 149.856 138.048 C 142.499 138.142,142.352 138.152,141.460 138.591 C 138.640 139.980,137.340 143.244,138.438 146.179 C 138.965 147.588,140.426 149.041,141.855 149.575 C 142.897 149.965,143.182 149.975,151.097 149.905 C 160.352 149.822,160.407 149.815,163.872 148.136 C 168.586 145.851,171.893 141.851,173.417 136.588 L 173.856 135.072 173.856 90.048 L 173.856 45.024 173.421 43.523 C 172.447 40.162,170.936 37.549,168.644 35.265 C 165.630 32.261,161.977 30.556,157.683 30.148 C 155.159 29.909,36.448 29.923,33.967 30.163 M94.080 114.350 C 93.605 114.501,92.856 114.905,92.417 115.248 C 91.527 115.943,55.736 157.624,54.889 158.952 C 52.917 162.044,54.431 166.284,57.992 167.637 C 58.918 167.989,60.110 168.000,95.871 168.000 C 137.162 168.000,133.927 168.114,135.777 166.600 C 137.215 165.423,137.915 163.950,137.936 162.057 C 137.949 160.846,137.866 160.434,137.429 159.552 C 136.794 158.269,100.623 115.969,99.457 115.146 C 97.916 114.057,95.925 113.763,94.080 114.350 M107.506 142.640 C 113.744 149.917,118.848 155.922,118.848 155.984 C 118.848 156.045,108.566 156.096,96.000 156.096 C 83.434 156.096,73.152 156.045,73.152 155.984 C 73.152 155.786,95.830 129.408,96.000 129.408 C 96.090 129.408,101.268 135.362,107.506 142.640 " fill="#000" stroke="#000" fill-rule="evenodd"></path></svg>