<svg xmlns="http://www.w3.org/2000/svg" width="24" height="24" viewBox="0 0 24 24" fill="none" stroke="currentColor" stroke-width="2" stroke-linecap="round" stroke-linejoin="round"><path d="M4.758 2.017 C 3.375 2.132,2.276 3.152,2.034 4.546 C 1.990 4.794,1.990 19.206,2.034 19.454 C 2.144 20.088,2.447 20.682,2.882 21.118 C 3.318 21.553,3.912 21.856,4.546 21.966 C 4.794 22.010,19.206 22.010,19.454 21.966 C 20.088 21.856,20.682 21.553,21.118 21.118 C 21.553 20.682,21.856 20.088,21.966 19.454 C 22.010 19.206,22.010 4.794,21.966 4.546 C 21.856 3.912,21.553 3.318,21.118 2.882 C 20.698 2.463,20.151 2.174,19.536 2.048 C 19.345 2.009,18.868 2.006,12.156 2.002 C 8.209 2.000,4.880 2.007,4.758 2.017 M19.416 4.094 C 19.619 4.191,19.809 4.381,19.906 4.584 L 19.980 4.740 19.980 12.000 L 19.980 19.260 19.906 19.416 C 19.808 19.621,19.619 19.810,19.417 19.905 L 19.260 19.980 12.000 19.980 L 4.740 19.980 4.583 19.905 C 4.381 19.810,4.192 19.621,4.094 19.416 L 4.020 19.260 4.020 12.000 L 4.020 4.740 4.094 4.584 C 4.178 4.410,4.373 4.199,4.524 4.121 C 4.750 4.005,4.361 4.011,12.036 4.016 L 19.260 4.020 19.416 4.094 M8.777 7.983 C 8.618 8.031,8.437 8.153,8.277 8.320 C 7.913 8.696,7.850 9.062,8.082 9.444 C 8.115 9.497,8.693 10.094,9.368 10.770 L 10.596 12.000 9.368 13.230 C 8.693 13.906,8.115 14.503,8.082 14.556 C 7.850 14.937,7.913 15.302,8.277 15.681 C 8.658 16.078,9.051 16.157,9.444 15.918 C 9.497 15.885,10.094 15.307,10.770 14.632 L 12.000 13.404 13.230 14.632 C 13.906 15.307,14.503 15.885,14.556 15.918 C 14.949 16.157,15.342 16.078,15.723 15.681 C 16.087 15.302,16.150 14.937,15.918 14.556 C 15.885 14.503,15.307 13.906,14.632 13.230 L 13.404 12.000 14.632 10.770 C 15.307 10.094,15.885 9.497,15.918 9.444 C 16.150 9.062,16.087 8.696,15.723 8.320 C 15.494 8.082,15.228 7.944,15.000 7.944 C 14.880 7.944,14.677 8.008,14.559 8.082 C 14.504 8.116,13.906 8.696,13.230 9.370 L 12.000 10.596 10.770 9.370 C 10.094 8.696,9.496 8.116,9.441 8.082 C 9.235 7.952,8.994 7.916,8.777 7.983 " stroke="none" fill="black" fill-rule="evenodd"></path></svg>