<svg xmlns="http://www.w3.org/2000/svg" width="192" height="192" fill="#000000" viewBox="0 0 256 256"><path d="M43.725 13.831 C 43.327 13.930,42.636 14.194,42.189 14.417 C 41.224 14.899,15.286 40.739,14.550 41.952 C 12.061 46.052,15.227 51.351,19.971 51.024 C 22.458 50.853,21.871 51.360,36.616 36.616 C 51.360 21.871,50.853 22.458,51.024 19.971 C 51.243 16.793,48.820 14.012,45.600 13.746 C 44.966 13.694,44.123 13.732,43.725 13.831 M145.564 13.828 C 142.823 14.401,140.781 17.135,140.976 19.971 C 141.147 22.458,140.640 21.871,155.384 36.616 C 170.129 51.360,169.542 50.853,172.029 51.024 C 176.773 51.351,179.939 46.052,177.450 41.952 C 177.194 41.530,171.053 35.248,163.804 27.993 C 152.428 16.608,150.479 14.736,149.566 14.320 C 148.355 13.768,146.778 13.574,145.564 13.828 M90.957 24.204 C 68.673 25.802,48.552 37.488,36.095 56.068 C 29.850 65.381,25.874 76.196,24.448 87.744 C 23.967 91.647,23.967 100.353,24.448 104.256 C 26.093 117.583,31.112 129.845,39.140 140.149 C 51.060 155.450,68.111 165.065,87.744 167.556 C 91.381 168.017,100.619 168.017,104.256 167.556 C 115.837 166.086,126.146 162.332,135.456 156.193 C 152.005 145.282,163.209 128.416,166.833 108.960 C 167.683 104.397,167.885 101.916,167.885 96.000 C 167.885 91.789,167.800 89.671,167.556 87.744 C 166.086 76.163,162.332 65.854,156.193 56.544 C 147.118 42.779,133.888 32.662,118.302 27.568 C 109.557 24.710,100.107 23.548,90.957 24.204 M104.218 36.558 C 115.352 38.244,124.785 42.294,133.417 49.094 C 136.415 51.456,141.675 56.898,143.996 60.041 C 149.528 67.530,153.124 75.582,154.824 84.288 C 155.695 88.749,155.807 90.075,155.807 96.000 C 155.807 99.693,155.717 102.299,155.550 103.488 C 153.606 117.290,148.050 128.612,138.535 138.163 C 135.170 141.540,132.968 143.408,129.792 145.579 C 115.038 155.666,96.362 158.612,79.122 153.570 C 71.626 151.378,64.787 147.825,58.560 142.885 C 56.190 141.005,50.958 135.770,49.099 133.417 C 42.190 124.675,38.045 114.868,36.449 103.488 C 36.102 101.013,36.102 90.987,36.449 88.512 C 38.045 77.132,42.190 67.325,49.099 58.583 C 50.976 56.207,56.207 50.976,58.583 49.099 C 67.324 42.191,78.004 37.693,88.512 36.494 C 89.515 36.380,90.638 36.252,91.008 36.210 C 92.687 36.019,102.336 36.273,104.218 36.558 M94.605 48.198 C 93.388 48.503,92.445 49.088,91.532 50.104 C 89.942 51.872,90.048 50.100,90.048 75.003 C 90.048 96.774,90.054 97.155,90.438 98.179 C 90.959 99.572,92.428 101.041,93.821 101.562 C 94.845 101.946,95.226 101.952,116.997 101.952 C 142.277 101.952,140.216 102.093,142.096 100.241 C 145.169 97.213,144.355 92.450,140.448 90.595 L 139.296 90.048 120.624 90.048 L 101.952 90.048 101.952 71.458 C 101.952 54.892,101.918 52.770,101.644 51.963 C 101.226 50.738,99.718 49.120,98.507 48.599 C 97.392 48.119,95.636 47.939,94.605 48.198 " stroke="#000" fill="black" fill-rule="evenodd"></path></svg>